<?xml version="1.0" encoding="UTF-8" standalone="no"?>
<svg
   xmlns:dc="http://purl.org/dc/elements/1.1/"
   xmlns:cc="http://creativecommons.org/ns#"
   xmlns:rdf="http://www.w3.org/1999/02/22-rdf-syntax-ns#"
   xmlns:svg="http://www.w3.org/2000/svg"
   xmlns="http://www.w3.org/2000/svg"
   xmlns:sodipodi="http://sodipodi.sourceforge.net/DTD/sodipodi-0.dtd"
   xmlns:inkscape="http://www.inkscape.org/namespaces/inkscape"
   width="276.30814mm"
   height="178.21819mm"
   viewBox="0 0 276.30814 178.21819"
   version="1.1"
   id="svg1666"
   inkscape:version="1.0.2-2 (e86c870879, 2021-01-15)"
   sodipodi:docname="logo.svg">
  <defs
     id="defs1660" />
  <sodipodi:namedview
     id="base"
     pagecolor="#ffffff"
     bordercolor="#666666"
     borderopacity="1.0"
     inkscape:pageopacity="0.0"
     inkscape:pageshadow="2"
     inkscape:zoom="0.35"
     inkscape:cx="707.87137"
     inkscape:cy="488.21898"
     inkscape:document-units="mm"
     inkscape:current-layer="layer1"
     inkscape:document-rotation="0"
     showgrid="false"
     showborder="false"
     inkscape:window-width="1112"
     inkscape:window-height="728"
     inkscape:window-x="78"
     inkscape:window-y="0"
     inkscape:window-maximized="0" />
  <metadata
     id="metadata1663">
    <rdf:RDF>
      <cc:Work
         rdf:about="">
        <dc:format>image/svg+xml</dc:format>
        <dc:type
           rdf:resource="http://purl.org/dc/dcmitype/StillImage" />
        <dc:title></dc:title>
      </cc:Work>
    </rdf:RDF>
  </metadata>
  <g
     inkscape:label="Capa 1"
     inkscape:groupmode="layer"
     id="layer1"
     transform="translate(81.457632,-18.992062)">
    <g
       id="g1563"
       transform="matrix(0.37186482,0,0,0.37186482,-590.39599,-1154.8992)">
      <path
         id="path1443"
         style="color:#000000;font-style:normal;font-variant:normal;font-weight:normal;font-stretch:normal;font-size:19.2636px;line-height:1.25;font-family:Spartan;-inkscape-font-specification:'Spartan, @wght=700';font-variant-ligatures:normal;font-variant-position:normal;font-variant-caps:normal;font-variant-numeric:normal;font-variant-alternates:normal;font-variant-east-asian:normal;font-feature-settings:normal;font-variation-settings:'wght' 700;text-indent:0;text-align:start;text-decoration:none;text-decoration-line:none;text-decoration-style:solid;text-decoration-color:#000000;letter-spacing:normal;word-spacing:normal;text-transform:none;writing-mode:lr-tb;direction:ltr;text-orientation:mixed;dominant-baseline:auto;baseline-shift:baseline;text-anchor:start;white-space:normal;shape-padding:0;shape-margin:0;inline-size:0;clip-rule:nonzero;display:inline;overflow:visible;visibility:visible;isolation:auto;mix-blend-mode:normal;color-interpolation:sRGB;color-interpolation-filters:linearRGB;solid-color:#000000;solid-opacity:1;vector-effect:none;fill:#51e9a1;fill-opacity:1;fill-rule:nonzero;stroke:none;stroke-width:14.9018;stroke-linecap:butt;stroke-linejoin:round;stroke-miterlimit:4;stroke-dasharray:none;stroke-dashoffset:0;stroke-opacity:1;color-rendering:auto;image-rendering:auto;shape-rendering:auto;text-rendering:auto;enable-background:accumulate;stop-color:#000000"
         d="m 2008.9269,3164.22 -127.7673,327.3004 -36.8365,-94.5652 h -96.0562 l 97.1387,231.618 h 71.4933 L 2111.645,3164.22 Z" />
      <path
         style="color:#000000;font-style:normal;font-variant:normal;font-weight:normal;font-stretch:normal;font-size:19.2636px;line-height:1.25;font-family:Spartan;-inkscape-font-specification:'Spartan, @wght=700';font-variant-ligatures:normal;font-variant-position:normal;font-variant-caps:normal;font-variant-numeric:normal;font-variant-alternates:normal;font-variant-east-asian:normal;font-feature-settings:normal;font-variation-settings:'wght' 700;text-indent:0;text-align:start;text-decoration:none;text-decoration-line:none;text-decoration-style:solid;text-decoration-color:#000000;letter-spacing:normal;word-spacing:normal;text-transform:none;writing-mode:lr-tb;direction:ltr;text-orientation:mixed;dominant-baseline:auto;baseline-shift:baseline;text-anchor:start;white-space:normal;shape-padding:0;shape-margin:0;inline-size:0;clip-rule:nonzero;display:inline;overflow:visible;visibility:visible;isolation:auto;mix-blend-mode:normal;color-interpolation:sRGB;color-interpolation-filters:linearRGB;solid-color:#000000;solid-opacity:1;vector-effect:none;fill:#586ef3;fill-opacity:1;fill-rule:nonzero;stroke:none;stroke-width:14.9018;stroke-linecap:butt;stroke-linejoin:round;stroke-miterlimit:4;stroke-dasharray:none;stroke-dashoffset:0;stroke-opacity:1;color-rendering:auto;image-rendering:auto;shape-rendering:auto;text-rendering:auto;enable-background:accumulate;stop-color:#000000"
         d="m 1643.3981,3164.2198 c -33.6335,0 -65.2701,5.9652 -94.9255,17.8995 -29.4744,11.9343 -55.5142,28.5771 -78.1172,49.9149 -22.4225,21.1565 -40.0597,45.834 -52.8981,74.0429 -12.6579,28.0274 -18.9912,58.2209 -18.9912,90.5884 0,32.1867 6.3333,62.2991 18.9912,90.3271 12.6578,28.028 30.2948,52.7056 52.8981,74.0428 22.603,21.1565 48.7238,37.7037 78.3791,49.6381 29.6554,11.9347 61.3878,17.8996 95.202,17.8996 28.028,0 54.4357,-3.9767 79.2088,-11.9331 24.7731,-7.9562 45.6506,-18.0745 62.6481,-30.3708 l -37.9673,-74.5958 c -12.115,9.5839 -26.851,17.0882 -44.2101,22.5127 -17.3592,5.4254 -35.5269,8.1348 -54.5135,8.1348 -22.2414,0 -42.861,-3.7042 -61.8476,-11.1179 -18.8058,-7.414 -35.2576,-17.724 -49.362,-30.924 -13.9235,-13.2003 -24.7782,-28.6576 -32.5537,-46.3786 -7.7755,-17.7208 -11.6565,-36.8828 -11.6565,-57.4967 0,-20.6144 3.881,-39.7907 11.6565,-57.5109 7.7755,-17.7211 18.6302,-33.1785 32.5537,-46.3789 14.1044,-13.2003 30.5562,-23.5099 49.362,-30.9238 18.9866,-7.4138 39.6062,-11.118 61.8476,-11.118 18.9866,0 37.1543,2.709 54.5135,8.1346 17.3591,5.4249 32.0951,12.9289 44.2101,22.5129 l 37.9673,-74.5811 c -17.7207,-12.658 -39.0475,-22.8868 -64.0014,-30.662 -24.7732,-7.7758 -50.9085,-11.6567 -78.3939,-11.6567 z"
         id="path1445" />
      <path
         style="color:#000000;font-style:normal;font-variant:normal;font-weight:normal;font-stretch:normal;font-size:19.2636px;line-height:1.25;font-family:Spartan;-inkscape-font-specification:'Spartan, @wght=700';font-variant-ligatures:normal;font-variant-position:normal;font-variant-caps:normal;font-variant-numeric:normal;font-variant-alternates:normal;font-variant-east-asian:normal;font-feature-settings:normal;font-variation-settings:'wght' 700;text-indent:0;text-align:start;text-decoration:none;text-decoration-line:none;text-decoration-style:solid;text-decoration-color:#000000;letter-spacing:normal;word-spacing:normal;text-transform:none;writing-mode:lr-tb;direction:ltr;text-orientation:mixed;dominant-baseline:auto;baseline-shift:baseline;text-anchor:start;white-space:normal;shape-padding:0;shape-margin:0;inline-size:0;clip-rule:nonzero;display:inline;overflow:visible;visibility:visible;isolation:auto;mix-blend-mode:normal;color-interpolation:sRGB;color-interpolation-filters:linearRGB;solid-color:#000000;solid-opacity:1;vector-effect:none;fill:none;fill-opacity:1;fill-rule:nonzero;stroke:#222223;stroke-width:14.9018;stroke-linecap:butt;stroke-linejoin:round;stroke-miterlimit:4;stroke-dasharray:none;stroke-dashoffset:0;stroke-opacity:1;color-rendering:auto;image-rendering:auto;shape-rendering:auto;text-rendering:auto;enable-background:accumulate;stop-color:#000000"
         d="m 1986.5228,3164.22 -127.7673,327.3004 -36.8366,-94.5652 h -96.0562 l 97.1387,231.618 h 71.4933 L 2089.2408,3164.22 Z"
         id="path1447" />
      <path
         id="path1449"
         d="m 1620.9941,3164.2197 c -33.6335,0 -65.2702,5.9652 -94.9255,17.8995 -29.4745,11.9342 -55.5142,28.5771 -78.1173,49.9149 -22.4225,21.1565 -40.0596,45.8339 -52.8981,74.0429 -12.6578,28.0274 -18.9911,58.2209 -18.9911,90.5883 0,32.1868 6.3333,62.2991 18.9911,90.3271 12.6579,28.028 30.2948,52.7056 52.8981,74.0429 22.6031,21.1564 48.7239,37.7036 78.3792,49.638 29.6554,11.9347 61.3877,17.8997 95.202,17.8997 28.028,0 54.4357,-3.9768 79.2087,-11.9332 24.7732,-7.9561 45.6506,-18.0745 62.6482,-30.3707 l -37.9673,-74.5958 c -12.1151,9.5839 -26.851,17.0881 -44.2101,22.5127 -17.3593,5.4254 -35.5269,8.1348 -54.5135,8.1348 -22.2414,0 -42.861,-3.7042 -61.8476,-11.118 -18.8058,-7.4139 -35.2576,-17.7239 -49.362,-30.924 -13.9235,-13.2003 -24.7783,-28.6575 -32.5537,-46.3785 -7.7755,-17.7208 -11.6566,-36.8828 -11.6566,-57.4968 0,-20.6144 3.8811,-39.7906 11.6566,-57.5109 7.7754,-17.7211 18.6302,-33.1785 32.5537,-46.3788 14.1044,-13.2003 30.5562,-23.5099 49.362,-30.9238 18.9866,-7.4138 39.6062,-11.118 61.8476,-11.118 18.9866,0 37.1542,2.709 54.5135,8.1345 17.3591,5.425 32.095,12.9289 44.2101,22.513 l 37.9673,-74.5811 c -17.7207,-12.658 -39.0475,-22.8869 -64.0015,-30.6621 -24.7731,-7.7757 -50.9084,-11.6566 -78.3938,-11.6566 z"
         style="color:#000000;font-style:normal;font-variant:normal;font-weight:normal;font-stretch:normal;font-size:19.2636px;line-height:1.25;font-family:Spartan;-inkscape-font-specification:'Spartan, @wght=700';font-variant-ligatures:normal;font-variant-position:normal;font-variant-caps:normal;font-variant-numeric:normal;font-variant-alternates:normal;font-variant-east-asian:normal;font-feature-settings:normal;font-variation-settings:'wght' 700;text-indent:0;text-align:start;text-decoration:none;text-decoration-line:none;text-decoration-style:solid;text-decoration-color:#000000;letter-spacing:normal;word-spacing:normal;text-transform:none;writing-mode:lr-tb;direction:ltr;text-orientation:mixed;dominant-baseline:auto;baseline-shift:baseline;text-anchor:start;white-space:normal;shape-padding:0;shape-margin:0;inline-size:0;clip-rule:nonzero;display:inline;overflow:visible;visibility:visible;isolation:auto;mix-blend-mode:normal;color-interpolation:sRGB;color-interpolation-filters:linearRGB;solid-color:#000000;solid-opacity:1;vector-effect:none;fill:none;fill-opacity:1;fill-rule:nonzero;stroke:#222223;stroke-width:14.9018;stroke-linecap:butt;stroke-linejoin:round;stroke-miterlimit:4;stroke-dasharray:none;stroke-dashoffset:0;stroke-opacity:1;color-rendering:auto;image-rendering:auto;shape-rendering:auto;text-rendering:auto;enable-background:accumulate;stop-color:#000000" />
    </g>
  </g>
</svg>
